<svg xmlns="http://www.w3.org/2000/svg" viewBox="0 0 90.77 86.42"><defs><style>.cls-1{fill:#fff;}.cls-2{stroke:#000;stroke-miterlimit:10;}</style></defs><g id="Layer_2" data-name="Layer 2"><g id="Layer_1-2" data-name="Layer 1"><path d="M90.75,43.19c0,4.51,0,9,0,13.53,0,4.18-2.19,6.55-6.29,7.35a2.75,2.75,0,0,0-1.56,1.24C67.65,90.32,32.6,93.76,13,72.13a36.56,36.56,0,0,1-3.37-4.27c-1.34-2-2.45-3.9-5.33-4.45C1.55,62.9.12,60.34.08,57.58q-.15-14.34,0-28.67A6.75,6.75,0,0,1,5.9,22.38,3.41,3.41,0,0,0,8,21C22.31-2.73,55.54-7.21,75.52,12c2.73,2.62,4.77,6,7.22,8.89A4.36,4.36,0,0,0,85,22.41a6.88,6.88,0,0,1,5.71,6.85c.09,4.64,0,9.28,0,13.93ZM2.28,43v6.47c0,2.28,0,4.57,0,6.86.11,4.07,2.12,5.55,6.11,5,8.72-1.17,17.45-2.51,26.22-3.14a188.7,188.7,0,0,1,48.59,3.23,4,4,0,0,0,5-3.16,11.87,11.87,0,0,0,.26-2.8c0-6.53,0-13.06,0-19.59,0-2,.06-4,0-6-.16-4-2.3-5.57-6.08-4.68A158.16,158.16,0,0,1,48,29.34,171.17,171.17,0,0,1,8,25.06c-3-.69-5.11.73-5.57,3.84a13.47,13.47,0,0,0-.1,2Q2.27,37,2.28,43ZM59.63,69.46H30.85c1.58,4.2,3.15,8.47,4.82,12.71a2,2,0,0,0,1.32,1,39.92,39.92,0,0,0,16.4.07,2.26,2.26,0,0,0,1.45-1.11C56.51,77.89,58.08,73.61,59.63,69.46Zm.14-52.17c-1.78-4.7-3.35-9-5-13.18a2.08,2.08,0,0,0-1.55-1c-4.67-.17-9.35-.24-14-.33a4.08,4.08,0,0,0-4.43,3.44C34.28,8,33.46,9.53,32.9,11.18c-.65,1.92-1.21,3.88-1.89,6.1A97.61,97.61,0,0,1,59.77,17.29ZM29,26.1a151.66,151.66,0,0,0,32.58.08c-.43-1.93-.73-3.66-1.25-5.31a2.16,2.16,0,0,0-1.43-1.29,88.88,88.88,0,0,0-27.34.05,2,2,0,0,0-1.41,1.07C29.71,22.37,29.45,24.1,29,26.1Zm.12,34.8c.25,1.28.52,2.25.61,3.24.15,1.77,1,2.4,2.8,2.61A94.69,94.69,0,0,0,55.14,67c6.22-.74,4.79.75,6.18-5.6,0-.1-.07-.23-.17-.56A185.76,185.76,0,0,0,29.16,60.9ZM81,64c-.22-.12-.28-.19-.33-.18-5.92,1.52-11.83,3-17.74,4.61a1.56,1.56,0,0,0-.93.87c-1.44,4.24-2.83,8.49-4.32,13A40.37,40.37,0,0,0,81,64ZM80.9,22.43A40.52,40.52,0,0,0,57.62,4.17c1.46,4.37,2.79,8.45,4.2,12.51A2,2,0,0,0,63,17.78C68.88,19.35,74.79,20.85,80.9,22.43ZM32.68,81.91c-1.34-4.18-2.61-8.28-4-12.33A2.66,2.66,0,0,0,27,68.26c-5-1.38-10-2.67-15-4-.68-.17-1.34-.37-2.18-.6C13.87,71.83,24.63,80.36,32.68,81.91Zm0-77.34C25.13,5.64,12.38,15.81,10.17,22.35c5.71-1.47,11.54-3,17.36-4.52a1.76,1.76,0,0,0,1.12-.91C30,12.81,31.34,8.68,32.66,4.57ZM62.71,20,64,26.06l12.18-1.88.07-.62Zm-36,5.94L27.82,20,14.6,23.55l.09.58ZM75.34,63l0-.56L63.87,61c-.36,1.69-.69,3.2-1.11,5.14ZM26.72,61l-11.3,1.45,0,.58,12.39,3C27.38,64.12,27.08,62.69,26.72,61Z"/><path class="cls-1" d="M59.63,69.46c-1.55,4.15-3.12,8.43-4.79,12.67a2.26,2.26,0,0,1-1.45,1.11A39.92,39.92,0,0,1,37,83.17a2,2,0,0,1-1.32-1c-1.67-4.24-3.24-8.51-4.82-12.71Z"/><path class="cls-1" d="M59.77,17.29a97.61,97.61,0,0,0-28.76,0c.68-2.22,1.24-4.18,1.89-6.1.56-1.65,1.38-3.23,1.82-4.91a4.08,4.08,0,0,1,4.43-3.44c4.68.09,9.36.16,14,.33a2.08,2.08,0,0,1,1.55,1C56.42,8.33,58,12.59,59.77,17.29Z"/><path class="cls-1" d="M29,26.1c.41-2,.67-3.73,1.15-5.4a2,2,0,0,1,1.41-1.07,88.88,88.88,0,0,1,27.34-.05,2.16,2.16,0,0,1,1.43,1.29c.52,1.65.82,3.38,1.25,5.31A151.66,151.66,0,0,1,29,26.1Z"/><path class="cls-1" d="M29.16,60.9a185.76,185.76,0,0,1,32,0c.1.33.19.46.17.56-1.39,6.35,0,4.86-6.18,5.6a94.69,94.69,0,0,1-22.57-.28c-1.81-.21-2.65-.84-2.8-2.61C29.68,63.15,29.41,62.18,29.16,60.9Z"/><path class="cls-1" d="M81,64A40.37,40.37,0,0,1,57.64,82.24c1.49-4.5,2.88-8.75,4.32-13a1.56,1.56,0,0,1,.93-.87c5.91-1.57,11.82-3.09,17.74-4.61C80.68,63.76,80.74,63.83,81,64Z"/><path class="cls-1" d="M80.9,22.43c-6.11-1.58-12-3.08-17.92-4.65a2,2,0,0,1-1.16-1.1c-1.41-4.06-2.74-8.14-4.2-12.51A40.52,40.52,0,0,1,80.9,22.43Z"/><path class="cls-1" d="M32.68,81.91c-8-1.55-18.81-10.08-22.83-18.24.84.23,1.5.43,2.18.6,5,1.32,10,2.61,15,4a2.66,2.66,0,0,1,1.66,1.32C30.07,73.63,31.34,77.73,32.68,81.91Z"/><path class="cls-1" d="M32.66,4.57c-1.32,4.11-2.63,8.24-4,12.35a1.76,1.76,0,0,1-1.12.91c-5.82,1.55-11.65,3.05-17.36,4.52C12.38,15.81,25.13,5.64,32.66,4.57Z"/><path class="cls-1" d="M62.71,20l13.53,3.57-.07.62L64,26.06Z"/><path class="cls-1" d="M26.66,25.93l-12-1.8-.09-.58L27.82,20Z"/><path class="cls-1" d="M75.34,63,62.76,66.16c.42-1.94.75-3.45,1.11-5.14L75.3,62.46Z"/><path class="cls-1" d="M26.72,61c.36,1.67.66,3.1,1.07,5l-12.39-3,0-.58Z"/><path class="cls-2" d="M8.36,47.7a6.17,6.17,0,0,0,3.12.88c1.78,0,2.82-.94,2.82-2.3s-.72-2-2.54-2.68c-2.2-.78-3.56-1.92-3.56-3.82,0-2.1,1.74-3.67,4.36-3.67a6.12,6.12,0,0,1,3,.66l-.48,1.43a5.35,5.35,0,0,0-2.56-.65c-1.84,0-2.54,1.11-2.54,2,0,1.26.82,1.88,2.68,2.6,2.28.88,3.44,2,3.44,4S14.54,50,11.36,50a7,7,0,0,1-3.44-.86Z"/><path class="cls-2" d="M20.14,44.58h0c.24-.34.58-.76.86-1.1l2.84-3.34H26l-3.74,4,4.26,5.7H24.38L21,45.18l-.9,1v3.64H18.4V35.61h1.74Z"/><path class="cls-2" d="M30.08,37.41a1.09,1.09,0,1,1-2.18,0,1.07,1.07,0,0,1,1.1-1.1A1,1,0,0,1,30.08,37.41Zm-2,12.41V40.14h1.76v9.68Z"/><path class="cls-2" d="M32.8,35.61h1.76V49.82H32.8Z"/><path class="cls-2" d="M37.52,35.61h1.76V49.82H37.52Z"/><path class="cls-2" d="M45.26,49.82,40.85,36.33h1.89L44.84,43c.58,1.82,1.08,3.46,1.44,5h0c.38-1.56.94-3.26,1.54-5l2.28-6.67H52L47.18,49.82Z"/><path class="cls-2" d="M53.71,45.3A3.11,3.11,0,0,0,57,48.66a6.38,6.38,0,0,0,2.69-.5l.3,1.26a7.84,7.84,0,0,1-3.22.6A4.5,4.5,0,0,1,52,45.14c0-2.92,1.72-5.22,4.54-5.22,3.17,0,4,2.78,4,4.56a6.64,6.64,0,0,1-.06.82ZM58.88,44c0-1.12-.46-2.86-2.44-2.86A2.91,2.91,0,0,0,53.74,44Z"/><path class="cls-2" d="M62.75,43.16c0-1.14,0-2.12-.08-3h1.55l.06,1.9h.08A2.9,2.9,0,0,1,67,39.92a1.9,1.9,0,0,1,.5.06v1.66a2.64,2.64,0,0,0-.6-.06,2.49,2.49,0,0,0-2.37,2.26,5,5,0,0,0-.07.82v5.16H62.75Z"/><path class="cls-2" d="M69.05,48a4.61,4.61,0,0,0,2.32.7c1.29,0,1.88-.64,1.88-1.44s-.5-1.3-1.8-1.78c-1.74-.62-2.56-1.58-2.56-2.74,0-1.56,1.26-2.84,3.35-2.84a4.89,4.89,0,0,1,2.38.6l-.44,1.28a3.83,3.83,0,0,0-2-.56c-1,0-1.63.6-1.63,1.32s.58,1.16,1.84,1.64c1.69.64,2.54,1.48,2.54,2.92,0,1.7-1.32,2.9-3.62,2.9a5.52,5.52,0,0,1-2.72-.66Z"/><path class="cls-2" d="M78.19,45.3a3.1,3.1,0,0,0,3.33,3.36,6.4,6.4,0,0,0,2.68-.5l.3,1.26a7.84,7.84,0,0,1-3.22.6c-3,0-4.77-2-4.77-4.88s1.72-5.22,4.54-5.22c3.17,0,4,2.78,4,4.56a6.64,6.64,0,0,1-.06.82ZM83.36,44c0-1.12-.46-2.86-2.45-2.86-1.78,0-2.56,1.64-2.7,2.86Z"/></g></g></svg>