<svg width="705" height="510" viewBox="0 0 705 510" fill="none" xmlns="http://www.w3.org/2000/svg">
<g filter="url(#filter0_i_894_8)">
<path fill-rule="evenodd" clip-rule="evenodd" d="M0 51C0 22.8335 22.8335 0 51 0H570.284C587.579 0 601.599 14.0206 601.599 31.3158C601.599 48.611 615.62 62.6316 632.915 62.6316H654C682.167 62.6316 705 85.4651 705 113.632V459C705 487.167 682.167 510 654 510H157.555C129.389 510 106.555 487.166 106.555 459V358.877C106.555 330.71 83.7219 307.877 55.5554 307.877H51C22.8335 307.877 0 285.043 0 256.877V51Z" fill="#ABCDCD"/>
</g>
<defs>
<filter id="filter0_i_894_8" x="0" y="0" width="709" height="514" filterUnits="userSpaceOnUse" color-interpolation-filters="sRGB">
<feFlood flood-opacity="0" result="BackgroundImageFix"/>
<feBlend mode="normal" in="SourceGraphic" in2="BackgroundImageFix" result="shape"/>
<feColorMatrix in="SourceAlpha" type="matrix" values="0 0 0 0 0 0 0 0 0 0 0 0 0 0 0 0 0 0 127 0" result="hardAlpha"/>
<feOffset dx="12" dy="11"/>
<feGaussianBlur stdDeviation="2"/>
<feComposite in2="hardAlpha" operator="arithmetic" k2="-1" k3="1"/>
<feColorMatrix type="matrix" values="0 0 0 0 0 0 0 0 0 0 0 0 0 0 0 0 0 0 0.25 0"/>
<feBlend mode="normal" in2="shape" result="effect1_innerShadow_894_8"/>
</filter>
</defs>
</svg>
