<svg xmlns="http://www.w3.org/2000/svg" xmlns:xlink="http://www.w3.org/1999/xlink" viewBox="0 0 1500 1500" width="380" height="380" style="width: 100%; height: 100%; transform: translate3d(0px, 0px, 0px); content-visibility: visible;" preserveAspectRatio="xMidYMid meet"><defs><clipPath id="__lottie_element_84"><rect width="1500" height="1500" x="0" y="0"/></clipPath></defs><g clip-path="url(#__lottie_element_84)"><g style="display: block;" transform="matrix(1,0,0,1,263.0469970703125,1199.2479248046875)" opacity="1"><g opacity="1" transform="matrix(1,0,0,1,474.0570068359375,74.23799896240234)"><path fill="rgb(227,223,217)" fill-opacity="1" d=" M473.8080139160156,-0.0010000000474974513 C473.8080139160156,40.86199951171875 261.677001953125,73.98799896240234 0.0010000000474974513,73.98799896240234 C-261.6759948730469,73.98799896240234 -473.8070068359375,40.86199951171875 -473.8070068359375,-0.0010000000474974513 C-473.8070068359375,-40.862998962402344 -261.6759948730469,-73.98799896240234 0.0010000000474974513,-73.98799896240234 C261.677001953125,-73.98799896240234 473.8080139160156,-40.862998962402344 473.8080139160156,-0.0010000000474974513z"/></g></g><g style="display: block;" transform="matrix(0.999999463558197,0.0010317579144611955,-0.0010317579144611955,0.999999463558197,407.5577697753906,83.58966064453125)" opacity="1"><g opacity="1" transform="matrix(1,0,0,1,190.48199462890625,510.8710021972656)"><path fill="rgb(133,168,125)" fill-opacity="1" d=" M-39.87900161743164,-381.375 C-7.702000141143799,-408.4580078125 31.040000915527344,-426.9739990234375 74.4469985961914,-431.1549987792969 C95.48200225830078,-433.1809997558594 118.52300262451172,-430.7300109863281 134.31199645996094,-416.67498779296875 C175.85699462890625,-379.6940002441406 171.572998046875,-291.68798828125 170.85000610351562,-240.29299926757812 C169.10800170898438,-116.68900299072266 137.76400756835938,5.21999979019165 88.54299926757812,118.16000366210938 C64.18800354003906,174.04200744628906 35.36800003051758,227.95599365234375 2.941999912261963,279.56298828125 C-11.954999923706055,303.27301025390625 -27.788000106811523,326.39599609375 -42.11199951171875,350.4649963378906 C-48.124000549316406,360.5660095214844 -88.38099670410156,423.12200927734375 -80.74199676513672,433.1809997558594 C-115.8270034790039,386.9830017089844 -135.3979949951172,330.52099609375 -145.30599975585938,273.364013671875 C-159.96200561523438,188.8249969482422 -175.85699462890625,101.70600128173828 -171.4929962158203,14.416999816894531 C-167.00799560546875,-75.31500244140625 -153.80499267578125,-165.21200561523438 -126.0770034790039,-250.86099243164062 C-110.09100341796875,-300.239990234375 -80.11900329589844,-347.5060119628906 -39.87900161743164,-381.375z"/></g><g opacity="1" transform="matrix(1,0,0,1,202.4510040283203,495.40399169921875)"><path stroke-linecap="butt" stroke-linejoin="miter" fill-opacity="0" stroke-miterlimit="10" stroke="rgb(166,107,53)" stroke-opacity="1" stroke-width="1" d=" M-96.76399993896484,492.90399169921875 C-108.6500015258789,343.8580017089844 -95.59200286865234,193.81300354003906 -66.98100280761719,47.32600021362305 C-39.68899917602539,-92.41600036621094 -4.189000129699707,-232.5780029296875 49.034000396728516,-364.843994140625 C55.834999084472656,-381.7449951171875 62.95199966430664,-398.52301025390625 70.41600036621094,-415.1440124511719"/></g><g opacity="1" transform="matrix(1,0,0,1,303.5069885253906,269.1969909667969)"><path stroke-linecap="butt" stroke-linejoin="miter" fill-opacity="0" stroke-miterlimit="10" stroke="rgb(60,115,40)" stroke-opacity="1" stroke-width="1" d=" M57.316001892089844,-40.2140007019043 C7.823999881744385,-18.624000549316406 -39.72200012207031,7.426000118255615 -84.53900146484375,37.54399871826172 C-100.91200256347656,48.54600143432617 -110.00700378417969,51.88100051879883 -123.69400024414062,66.08599853515625"/></g><g opacity="1" transform="matrix(1,0,0,1,260.61199951171875,450.5329895019531)"><path stroke-linecap="butt" stroke-linejoin="miter" fill-opacity="0" stroke-miterlimit="10" stroke="rgb(60,115,40)" stroke-opacity="1" stroke-width="1" d=" M-116.75599670410156,44.069000244140625 C-55.479000091552734,5.114999771118164 12.802000045776367,-22.76799964904785 83.8010025024414,-37.96200180053711"/></g><g opacity="1" transform="matrix(1,0,0,1,229.9980010986328,629.6900024414062)"><path stroke-linecap="butt" stroke-linejoin="miter" fill-opacity="0" stroke-miterlimit="10" stroke="rgb(154,114,64)" stroke-opacity="1" stroke-width="1" d=" M-115.40599822998047,56.85200119018555 C-62.70000076293945,11.862000465393066 -0.9039999842643738,-22.392000198364258 65.08899688720703,-43.5"/></g><g opacity="1" transform="matrix(1,0,0,1,155.55999755859375,215.9530029296875)"><path stroke-linecap="butt" stroke-linejoin="miter" fill-opacity="0" stroke-miterlimit="10" stroke="rgb(154,114,64)" stroke-opacity="1" stroke-width="1" d=" M27.93000030517578,114.45099639892578 C24.141000747680664,48.505001068115234 10.206000328063965,-16.8439998626709 -13.149999618530273,-78.62999725341797"/></g><g opacity="1" transform="matrix(1,0,0,1,75.37300109863281,393.8819885253906)"><path stroke-linecap="butt" stroke-linejoin="miter" fill-opacity="0" stroke-miterlimit="10" stroke="rgb(154,114,64)" stroke-opacity="1" stroke-width="1" d=" M69.42900085449219,94.23100280761719 C44.07400131225586,38.91600036621094 9.817999839782715,-12.293000221252441 -31.52400016784668,-56.93600082397461"/></g><g opacity="1" transform="matrix(1,0,0,1,56.34600067138672,608.0469970703125)"><path stroke-linecap="butt" stroke-linejoin="miter" fill-opacity="0" stroke-miterlimit="10" stroke="rgb(154,114,64)" stroke-opacity="1" stroke-width="1" d=" M53.84600067138672,83.927001953125 C49.4109992980957,61.89899826049805 41.50400161743164,40.573001861572266 30.507999420166016,20.976999282836914 C17.715999603271484,-1.8170000314712524 0.906000018119812,-22.073999404907227 -16.216999053955078,-41.82400131225586 C-23.183000564575195,-49.85900115966797 -30.216999053955078,-57.834999084472656 -37.319000244140625,-65.75"/></g></g><g style="display: block;" transform="matrix(0.999999463558197,-0.0010317579144611955,0.0010317579144611955,0.999999463558197,206.39111328125,425.9237060546875)" opacity="1"><g opacity="1" transform="matrix(1,0,0,1,176.5330047607422,316.9490051269531)"><path fill="rgb(65,117,5)" fill-opacity="1" d=" M-3.384000062942505,-251.14300537109375 C-27.4689998626709,-264.8869934082031 -54.79399871826172,-272.2950134277344 -83.44300079345703,-269.85198974609375 C-97.32599639892578,-268.66900634765625 -111.97699737548828,-264.3429870605469 -120.55000305175781,-253.3520050048828 C-143.1020050048828,-224.43499755859375 -129.8730010986328,-167.86500549316406 -123.3010025024414,-134.6179962158203 C-107.49400329589844,-54.65999984741211 -72.68800354003906,20.683000564575195 -27.354999542236328,88.08599853515625 C-4.922999858856201,121.43800354003906 20.17099952697754,152.98199462890625 47.33000183105469,182.6020050048828 C59.805999755859375,196.20899963378906 72.82099914550781,209.3249969482422 84.97000122070312,223.23399353027344 C90.06800079345703,229.07200622558594 123.6050033569336,264.86199951171875 119.84500122070312,272.29400634765625 C137.11500549316406,238.1649932861328 143.1020050048828,199.22300720214844 142.74099731445312,160.9770050048828 C142.20799255371094,104.40699768066406 142.17100524902344,46.018001556396484 128.97500610351562,-10.076000213623047 C115.41100311279297,-67.73999786376953 96.1729965209961,-124.4749984741211 68.01899719238281,-176.73199462890625 C51.78799819946289,-206.85899353027344 26.73699951171875,-233.9550018310547 -3.384000062942505,-251.14300537109375z"/></g><g opacity="1" transform="matrix(1,0,0,1,179.1199951171875,309.9830017089844)"><path stroke-linecap="butt" stroke-linejoin="miter" fill-opacity="0" stroke-miterlimit="10" stroke="rgb(199,166,127)" stroke-opacity="1" stroke-width="1" d=" M125.14299774169922,307.48199462890625 C115.15299987792969,209.40499877929688 88.86599731445312,113.64299774169922 52.91600036621094,22.03499984741211 C18.6200008392334,-65.3550033569336 -21.047000885009766,-152.04400634765625 -71.27200317382812,-231.5070037841797 C-77.85199737548828,-241.91700744628906 -84.63200378417969,-252.2030029296875 -91.62899780273438,-262.3389892578125"/></g><g opacity="1" transform="matrix(1,0,0,1,90.56999969482422,174.5679931640625)"><path stroke-linecap="butt" stroke-linejoin="miter" fill-opacity="0" stroke-miterlimit="10" stroke="rgb(199,166,127)" stroke-opacity="1" stroke-width="1" d=" M-42.595001220703125,-19.426000595092773 C-7.708000183105469,-11.288999557495117 26.441999435424805,0.010999999940395355 59.28799819946289,14.310999870300293 C71.21299743652344,19.50200080871582 77.50700378417969,20.584999084472656 88.06999969482422,28.172000885009766"/></g><g opacity="1" transform="matrix(1,0,0,1,139.9250030517578,286.37799072265625)"><path stroke-linecap="butt" stroke-linejoin="miter" fill-opacity="0" stroke-miterlimit="10" stroke="rgb(199,166,127)" stroke-opacity="1" stroke-width="1" d=" M80.95600128173828,15.42199993133545 C36.09600067138672,-2.7660000324249268 -12.064000129699707,-12.76200008392334 -60.45199966430664,-14.008999824523926"/></g><g opacity="1" transform="matrix(1,0,0,1,181.0540008544922,399.6409912109375)"><path stroke-linecap="butt" stroke-linejoin="miter" fill-opacity="0" stroke-miterlimit="10" stroke="rgb(199,166,127)" stroke-opacity="1" stroke-width="1" d=" M81.5989990234375,23.167999267578125 C41.79199981689453,0.08399999886751175 -2.7019999027252197,-14.840999603271484 -48.347999572753906,-20.60700035095215"/></g><g opacity="1" transform="matrix(1,0,0,1,176.98800659179688,122.46700286865234)"><path stroke-linecap="butt" stroke-linejoin="miter" fill-opacity="0" stroke-miterlimit="10" stroke="rgb(199,166,127)" stroke-opacity="1" stroke-width="1" d=" M-1.309999942779541,77.54499816894531 C-6.704999923706055,34.15599822998047 -5.395999908447266,-10.055999755859375 2.496000051498413,-53.058998107910156"/></g><g opacity="1" transform="matrix(1,0,0,1,253.33700561523438,228.34300231933594)"><path stroke-linecap="butt" stroke-linejoin="miter" fill-opacity="0" stroke-miterlimit="10" stroke="rgb(199,166,127)" stroke-opacity="1" stroke-width="1" d=" M-33.8390007019043,69.36000061035156 C-23.93000030517578,30.340999603271484 -7.7179999351501465,-7.060999870300293 13.904000282287598,-41.01599884033203"/></g><g opacity="1" transform="matrix(1,0,0,1,291.1080017089844,364.9830017089844)"><path stroke-linecap="butt" stroke-linejoin="miter" fill-opacity="0" stroke-miterlimit="10" stroke="rgb(199,166,127)" stroke-opacity="1" stroke-width="1" d=" M-24.95599937438965,60.82600021362305 C-24.695999145507812,46.01300048828125 -22.101999282836914,31.243000030517578 -17.29599952697754,17.22800064086914 C-11.706999778747559,0.9259999990463257 -3.2079999446868896,-14.208000183105469 5.551000118255615,-29.049999237060547 C9.170000076293945,-35.18299865722656 12.843000411987305,-41.28499984741211 16.56800079345703,-47.354000091552734"/></g></g><g style="display: block;" transform="matrix(1,0,0,1,363.8690185546875,939.9649658203125)" opacity="1"><g opacity="1" transform="matrix(1,0,0,1,141.49000549316406,176.02000427246094)"><path fill="rgb(155,165,177)" fill-opacity="1" d=" M122.5999984741211,-138.48800659179688 C122.5999984741211,-138.48800659179688 -122.5999984741211,-138.48800659179688 -122.5999984741211,-138.48800659179688 C-122.5999984741211,0 -79.58200073242188,138.48800659179688 -79.58200073242188,138.48800659179688 C-79.58200073242188,138.48800659179688 79.58200073242188,138.48800659179688 79.58200073242188,138.48800659179688 C79.58200073242188,138.48800659179688 122.5999984741211,0.6019999980926514 122.5999984741211,-138.48800659179688z"/></g><g opacity="1" transform="matrix(1,0,0,1,141.49000549316406,18.891000747680664)"><path fill="rgb(181,181,181)" fill-opacity="1" d=" M141.24000549316406,18.641000747680664 C141.24000549316406,18.641000747680664 -141.24000549316406,18.641000747680664 -141.24000549316406,18.641000747680664 C-141.24000549316406,18.641000747680664 -141.24000549316406,-18.641000747680664 -141.24000549316406,-18.641000747680664 C-141.24000549316406,-18.641000747680664 141.24000549316406,-18.641000747680664 141.24000549316406,-18.641000747680664 C141.24000549316406,-18.641000747680664 141.24000549316406,18.641000747680664 141.24000549316406,18.641000747680664z"/></g></g><g style="display: block;" transform="matrix(1,0,0,1,615.321044921875,698.2260131835938)" opacity="1"><g opacity="1" transform="matrix(1,0,0,1,149.62899780273438,268.38299560546875)"><path fill="rgb(199,120,24)" fill-opacity="1" d=" M1.562999963760376,267.49798583984375 C-36.231998443603516,266.4949951171875 -73.49800109863281,262.2869873046875 -107.89800262451172,247.28399658203125 C-123.49199676513672,240.48199462890625 -139.26600646972656,230.2270050048828 -144.6219940185547,214.07899475097656 C-146.8990020751953,207.21400451660156 -147.072998046875,199.8520050048828 -147.12600708007812,192.61900329589844 C-147.32899475097656,165.6320037841797 -145.57000732421875,139.67100524902344 -146.94000244140625,112.77799987792969 C-148.35400390625,85.01599884033203 -148.37899780273438,57.207000732421875 -148.7480010986328,29.41699981689453 C-149.37899780273438,-18.14699935913086 -147.40699768066406,-65.80400085449219 -141.15499877929688,-112.98500061035156 C-140.14500427246094,-120.60399627685547 -138.16299438476562,-128.09300231933594 -135.27000427246094,-135.21099853515625 C-132.38499450683594,-142.31300354003906 -128.54299926757812,-149.11300659179688 -123.23699951171875,-154.64599609375 C-118.23100280761719,-159.86300659179688 -112.07499694824219,-163.8090057373047 -105.98100280761719,-167.7010040283203 C-84.76399993896484,-181.25999450683594 -55.14500045776367,-193.13499450683594 -44.0629997253418,-217.031005859375 C-36.948001861572266,-232.3769989013672 -35.308998107910156,-249.63800048828125 -34.52399826049805,-266.5350036621094 C-13.942999839782715,-267.989990234375 6.73199987411499,-268.13299560546875 27.332000732421875,-266.9639892578125 C25.781999588012695,-251.86700439453125 25.493999481201172,-236.32899475097656 29.93899917602539,-221.81900024414062 C31.242000579833984,-217.57000732421875 32.0890007019043,-213.06700134277344 35.06399917602539,-209.6580047607422 C44.9900016784668,-198.28399658203125 56.97200012207031,-190.75999450683594 70.25399780273438,-184.41799926757812 C83.03299713134766,-178.3159942626953 95.08799743652344,-170.7469940185547 106.48899841308594,-162.38600158691406 C116.47899627685547,-155.0570068359375 123.47200012207031,-142.32000732421875 128.9949951171875,-131.17799377441406 C144.33399963378906,-100.23100280761719 145.0989990234375,-64.3550033569336 145.55499267578125,-29.816999435424805 C146.0030059814453,4.296999931335449 146.66600036621094,39.41299819946289 147.38400268554688,73.91000366210938 C148.4290008544922,123.91000366210938 149.3780059814453,173.21800231933594 149.19000244140625,223.18499755859375 C149.16799926757812,229.18299865722656 149.11700439453125,235.33700561523438 146.95199584960938,240.9290008544922 C144.44900512695312,247.38999938964844 139.29400634765625,252.54100036621094 133.48699951171875,256.32000732421875 C116.13500213623047,267.6130065917969 94.03199768066406,267.4679870605469 73.33000183105469,267.47698974609375 C49.59000015258789,267.4849853515625 25.469999313354492,268.1319885253906 1.562999963760376,267.49798583984375z"/></g></g><g style="display: block;" transform="matrix(1,0,0,1,694.6240234375,698.2260131835938)" opacity="1"><g opacity="1" transform="matrix(1,0,0,1,63.479000091552734,55.27799987792969)"><path fill="rgb(219,182,137)" fill-opacity="1" d=" M59.54499816894531,25.606000900268555 C60.856998443603516,24.170000076293945 62.04800033569336,22.618999481201172 63.229000091552734,21.065000534057617 C55.44499969482422,16.259000778198242 48.22600173950195,10.682000160217285 41.9109992980957,3.447000026702881 C38.9370002746582,0.03799999877810478 38.0890007019043,-4.465000152587891 36.7859992980957,-8.71399974822998 C32.340999603271484,-23.224000930786133 32.62900161743164,-38.762001037597656 34.17900085449219,-53.85900115966797 C13.579000473022461,-55.02799987792969 -7.0960001945495605,-54.8849983215332 -27.677000045776367,-53.43000030517578 C-28.461999893188477,-36.53300094604492 -30.10099983215332,-19.27199935913086 -37.215999603271484,-3.9260001182556152 C-42.566001892089844,7.610000133514404 -52.270999908447266,16.31100082397461 -63.229000091552734,23.78700065612793 C-58.178001403808594,29.38599967956543 -52.332000732421875,34.12699890136719 -46.189998626708984,37.48400115966797 C-46.03499984741211,37.56999969482422 -45.87900161743164,37.65399932861328 -45.722999572753906,37.737998962402344 C-13.348999977111816,55.02799987792969 33.26100158691406,54.41400146484375 59.54499816894531,25.606000900268555z"/></g></g><g style="display: block;" transform="matrix(1,0,0,1,810.8980712890625,779.77001953125)" opacity="1"><g opacity="1" transform="matrix(1,0,0,1,95.31199645996094,278.4930114746094)"><path fill="rgb(250,206,152)" fill-opacity="1" d=" M-81.20500183105469,154.1199951171875 C-81.20500183105469,154.1199951171875 -95.06099700927734,106.2959976196289 -95.06099700927734,106.2959976196289 C-54.959999084472656,94.6760025024414 -10.194999694824219,79.20600128173828 13.428999900817871,42.49800109863281 C50.42399978637695,-14.980999946594238 16.635000228881836,-76.34700012207031 -11.569000244140625,-122.45899963378906 C-11.569000244140625,-122.45899963378906 38.83700180053711,-154.1199951171875 38.83700180053711,-154.1199951171875 C89.21700286865234,-71.73799896240234 95.06199645996094,7.6570000648498535 55.290000915527344,69.4520034790039 C23.922000885009766,118.18000030517578 -28.85099983215332,138.9409942626953 -81.20500183105469,154.1199951171875z"/></g><g opacity="1" transform="matrix(1,0,0,1,103.177001953125,93.5530014038086)"><path fill="rgb(199,120,24)" fill-opacity="1" d=" M62.22999954223633,42.09199905395508 C39.369998931884766,60.92100143432617 1.3049999475479126,79.93000030517578 -25.121000289916992,93.302001953125 C-20.11400032043457,90.76799774169922 -25.47599983215332,23.8439998626709 -27.427000045776367,16.965999603271484 C-34.39400100708008,-7.613999843597412 -48.72600173950195,-31.988000869750977 -54.132999420166016,-56.54199981689453 C-62.22999954223633,-93.3030014038086 7.5289998054504395,-32.49800109863281 14.576000213623047,-24.812000274658203 C33.12699890136719,-4.583000183105469 49.20199966430664,17.929000854492188 62.22999954223633,42.09199905395508z"/></g></g><g style="display: block;" transform="matrix(1,0,0,1,522.7660522460938,779.77001953125)" opacity="1"><g opacity="1" transform="matrix(1,0,0,1,95.31199645996094,278.4930114746094)"><path fill="rgb(250,206,152)" fill-opacity="1" d=" M81.20500183105469,154.1199951171875 C28.85099983215332,138.9409942626953 -23.92099952697754,118.18000030517578 -55.290000915527344,69.4520034790039 C-95.06199645996094,7.6570000648498535 -89.21700286865234,-71.73799896240234 -38.83700180053711,-154.1199951171875 C-38.83700180053711,-154.1199951171875 13.017999649047852,-121.21499633789062 13.017999649047852,-121.21499633789062 C-15.185999870300293,-75.10299682617188 -50.42300033569336,-14.980999946594238 -13.428000450134277,42.49800109863281 C10.194999694824219,79.20600128173828 54.959999084472656,94.6760025024414 95.06199645996094,106.2959976196289 C95.06199645996094,106.2959976196289 81.20500183105469,154.1199951171875 81.20500183105469,154.1199951171875z"/></g><g opacity="1" transform="matrix(1,0,0,1,87.44599914550781,92.1969985961914)"><path fill="rgb(199,120,24)" fill-opacity="1" d=" M-62.22999954223633,43.448001861572266 C-39.37099838256836,62.277000427246094 -0.35199999809265137,78.57499694824219 26.073999404907227,91.9469985961914 C21.06599998474121,89.41200256347656 25.476999282836914,25.200000762939453 27.426000595092773,18.32200050354004 C34.39500045776367,-6.257999897003174 48.72600173950195,-30.631999969482422 54.13399887084961,-55.18600082397461 C62.22999954223633,-91.9469985961914 -7.5279998779296875,-31.142000198364258 -14.57699966430664,-23.45599937438965 C-33.12799835205078,-3.2269999980926514 -49.20399856567383,19.28499984741211 -62.22999954223633,43.448001861572266z"/></g></g><g style="display: block;" transform="matrix(1,0,0,1,604.9830322265625,962.93701171875)" opacity="1"><g opacity="1" transform="matrix(1,0,0,1,160.5959930419922,117.2490005493164)"><path fill="rgb(147,147,147)" fill-opacity="1" d=" M139.66299438476562,105.7959976196289 C139.66299438476562,105.7959976196289 -139.66400146484375,105.7959976196289 -139.66400146484375,105.7959976196289 C-139.66400146484375,105.7959976196289 -160.3459930419922,-105.7959976196289 -160.3459930419922,-105.7959976196289 C-160.3459930419922,-105.7959976196289 160.3459930419922,-105.7959976196289 160.3459930419922,-105.7959976196289 C160.3459930419922,-105.7959976196289 139.66299438476562,105.7959976196289 139.66299438476562,105.7959976196289z"/></g><g opacity="1" transform="matrix(1,0,0,1,160.5959930419922,5.85099983215332)"><path fill="rgb(227,223,217)" fill-opacity="1" d=" M150.38800048828125,-5.60099983215332 C150.38800048828125,-5.60099983215332 -150.38800048828125,-5.60099983215332 -150.38800048828125,-5.60099983215332 C-150.38800048828125,-5.60099983215332 -160.34500122070312,5.60099983215332 -160.34500122070312,5.60099983215332 C-160.34500122070312,5.60099983215332 160.3459930419922,5.60099983215332 160.3459930419922,5.60099983215332 C160.3459930419922,5.60099983215332 150.38800048828125,-5.60099983215332 150.38800048828125,-5.60099983215332z"/></g></g><g style="display: block;" transform="matrix(1,0,0,1,451.5650634765625,1072.862060546875)" opacity="1"><g opacity="1" transform="matrix(1,0,0,1,77.00199890136719,199.70599365234375)"><path fill="rgb(223,146,52)" fill-opacity="1" d=" M75.79000091552734,-3.2799999713897705 C76.75299835205078,-15.675999641418457 68.20099639892578,-30.573999404907227 57.65599822998047,-33.970001220703125 C47.266998291015625,-37.314998626708984 34.40599822998047,-36.46200180053711 23.586999893188477,-37.27000045776367 C3.493000030517578,-38.775001525878906 -16.867000579833984,-39.426998138427734 -36.82600021362305,-35.81999969482422 C-54.354000091552734,-32.652000427246094 -76.75199890136719,-27.033000946044922 -76.11599731445312,-1.7009999752044678 C-75.6780014038086,15.72700023651123 -63.474998474121094,26.7549991607666 -49.91299819946289,31.96500015258789 C-30.492000579833984,39.426998138427734 -9.640000343322754,38.54199981689453 10.371999740600586,35.1510009765625 C31.093000411987305,31.639999389648438 73.30799865722656,28.650999069213867 75.79000091552734,-3.2799999713897705z"/></g><g opacity="1" transform="matrix(1,0,0,1,399.3840026855469,112.09400177001953)"><path fill="rgb(158,121,76)" fill-opacity="1" d=" M12.619000434875488,87.052001953125 C20.785999298095703,85.08699798583984 28.920000076293945,82.99400329589844 37.01499938964844,80.77799987792969 C64.39800262451172,73.27799987792969 91.50900268554688,64.33399963378906 118.24700164794922,53.98899841308594 C142.73500061035156,44.513999938964844 168.2689971923828,35.077999114990234 189.23500061035156,16.5 C222.2550048828125,-12.755999565124512 231.58200073242188,-82.19599914550781 185.40199279785156,-100.95899963378906 C158.61099243164062,-111.84400177001953 129.875,-106.08999633789062 103.44300079345703,-96.59600067138672 C74.50199890136719,-86.2020034790039 46.53900146484375,-72.75299835205078 18.138999938964844,-60.49700164794922 C-18.422000885009766,-44.72200012207031 -54.9630012512207,-28.95199966430664 -91.25,-12.289999961853027 C-136.25999450683594,8.5600004196167 -181.5449981689453,28.861000061035156 -228.0970001220703,44.19200134277344 C-228.99600219726562,44.487998962402344 -229.9530029296875,44.82699966430664 -230.5500030517578,45.691001892089844 C-231.14700317382812,46.54899978637695 -231.25599670410156,47.74300003051758 -231.31500244140625,48.86199951171875 C-231.58299255371094,53.891998291015625 -227.61599731445312,111.64099884033203 -225.14599609375,111.677001953125 C-191.92599487304688,111.84400177001953 -158.97799682617188,109.86900329589844 -125.7969970703125,107.86799621582031 C-79.7969970703125,105.09400177001953 -33.0989990234375,98.05699920654297 12.619000434875488,87.052001953125z"/></g><g opacity="1" transform="matrix(1,0,0,1,141.88099670410156,190.7830047607422)"><path fill="rgb(250,206,152)" fill-opacity="1" d=" M32.356998443603516,32.987998962402344 C32.32600021362305,32.59700012207031 12.39799976348877,32.994998931884766 10.991999626159668,32.994998931884766 C-1.843000054359436,32.99800109863281 -21.913999557495117,32.46500015258789 -28.327999114990234,15.899999618530273 C-32.356998443603516,5.500999927520752 -29.691999435424805,-12.954999923706055 -22.658000946044922,-20.687000274658203 C-16.062000274658203,-27.937000274658203 -6.0229997634887695,-27.45400047302246 2.236999988555908,-29.378000259399414 C10.406000137329102,-31.2810001373291 18.75200080871582,-31.417999267578125 26.95199966430664,-32.99700164794922 C26.95199966430664,-32.99700164794922 32.35300064086914,32.93199920654297 32.356998443603516,32.987998962402344z"/></g></g><g style="display: block;" transform="matrix(1,0,0,1,437.66107177734375,1072.862060546875)" opacity="1"><g opacity="1" transform="matrix(1,0,0,1,554.2119750976562,199.70599365234375)"><path fill="rgb(223,146,52)" fill-opacity="1" d=" M-75.79000091552734,-3.2799999713897705 C-76.75199890136719,-15.675999641418457 -68.19999694824219,-30.573999404907227 -57.65599822998047,-33.970001220703125 C-47.268001556396484,-37.314998626708984 -34.404998779296875,-36.46200180053711 -23.586000442504883,-37.27000045776367 C-3.492000102996826,-38.775001525878906 16.868000030517578,-39.426998138427734 36.827999114990234,-35.81999969482422 C54.35499954223633,-32.652000427246094 76.75199890136719,-27.033000946044922 76.11599731445312,-1.7009999752044678 C75.68000030517578,15.72700023651123 63.47700119018555,26.7549991607666 49.91299819946289,31.96500015258789 C30.493000030517578,39.426998138427734 9.640000343322754,38.54199981689453 -10.371999740600586,35.1510009765625 C-31.091999053955078,31.639999389648438 -73.30699920654297,28.650999069213867 -75.79000091552734,-3.2799999713897705z"/></g><g opacity="1" transform="matrix(1,0,0,1,231.83200073242188,112.09400177001953)"><path fill="rgb(187,140,82)" fill-opacity="1" d=" M-12.619000434875488,87.052001953125 C-20.785999298095703,85.08699798583984 -28.92099952697754,82.99400329589844 -37.01599884033203,80.77799987792969 C-64.39900207519531,73.27799987792969 -91.50900268554688,64.33399963378906 -118.24600219726562,53.98899841308594 C-142.73500061035156,44.513999938964844 -168.27000427246094,35.077999114990234 -189.23599243164062,16.5 C-222.25599670410156,-12.755999565124512 -231.58200073242188,-82.19599914550781 -185.40199279785156,-100.95899963378906 C-158.61099243164062,-111.84400177001953 -129.875,-106.08999633789062 -103.44499969482422,-96.59600067138672 C-74.50199890136719,-86.2020034790039 -46.53799819946289,-72.75299835205078 -18.13800048828125,-60.49700164794922 C18.42099952697754,-44.72200012207031 54.9630012512207,-28.95199966430664 91.25199890136719,-12.289999961853027 C136.25900268554688,8.5600004196167 181.5449981689453,28.861000061035156 228.0970001220703,44.19200134277344 C228.9969940185547,44.487998962402344 229.9530029296875,44.82699966430664 230.5500030517578,45.691001892089844 C231.14700317382812,46.54899978637695 231.25399780273438,47.74300003051758 231.31300354003906,48.86199951171875 C231.58200073242188,53.891998291015625 227.61599731445312,111.64099884033203 225.14599609375,111.677001953125 C191.92599487304688,111.84400177001953 158.97799682617188,109.86900329589844 125.7959976196289,107.86799621582031 C79.7969970703125,105.09400177001953 33.0989990234375,98.05699920654297 -12.619000434875488,87.052001953125z"/></g><g opacity="1" transform="matrix(1,0,0,1,489.3349914550781,190.7830047607422)"><path fill="rgb(250,206,152)" fill-opacity="1" d=" M-32.35599899291992,32.987998962402344 C-32.32400131225586,32.59700012207031 -12.39900016784668,32.994998931884766 -10.993000030517578,32.994998931884766 C1.8420000076293945,32.99800109863281 21.913999557495117,32.46500015258789 28.32900047302246,15.899999618530273 C32.356998443603516,5.500999927520752 29.691999435424805,-12.954999923706055 22.658000946044922,-20.687000274658203 C16.06100082397461,-27.937000274658203 6.021999835968018,-27.45400047302246 -2.23799991607666,-29.378000259399414 C-10.406000137329102,-31.2810001373291 -18.75200080871582,-31.417999267578125 -26.95199966430664,-32.99700164794922 C-26.95199966430664,-32.99700164794922 -32.35200119018555,32.93199920654297 -32.35599899291992,32.987998962402344z"/></g></g><g style="display: block;" transform="matrix(1,0,0,1,632.9600219726562,476.10504150390625)" opacity="1"><g opacity="1" transform="matrix(1,0,0,1,130.77699279785156,152.87100219726562)"><path fill="rgb(63,50,32)" fill-opacity="1" d=" M86.36599731445312,20.00200080871582 C103.21700286865234,-29.1560001373291 93.36900329589844,-86.01899719238281 39.39400100708008,-103.93599700927734 C19.486000061035156,-110.54499816894531 -1.812000036239624,-113.91100311279297 -22.57900047302246,-110.94499969482422 C-35.77799987792969,-109.05899810791016 -47.0359992980957,-101.8010025024414 -59.61800003051758,-97.99199676513672 C-71.33399963378906,-94.44400024414062 -81.947998046875,-93.08999633789062 -90.302001953125,-82.90699768066406 C-103.21700286865234,-67.16500091552734 -103.00900268554688,-41.56700134277344 -102.71900177001953,-22.2810001373291 C-102.01000213623047,24.822999954223633 -82.5459976196289,79.9209976196289 -33.2130012512207,95.89099884033203 C22.447999954223633,113.91000366210938 68.84400177001953,71.12300109863281 86.36599731445312,20.00200080871582z"/></g><g opacity="1" transform="matrix(1,0,0,1,127.45899963378906,134.84300231933594)"><path fill="rgb(250,206,152)" fill-opacity="1" d=" M-87.41600036621094,8.991999626159668 C-87.89600372314453,34.928001403808594 -82.94200134277344,60.63600158691406 -73.87899780273438,78.56900024414062 C-61.28300094604492,103.49600219726562 -37.59600067138672,123.947998046875 -9.868000030517578,127.29399871826172 C18.27199935913086,130.6909942626953 44.9010009765625,115.49800109863281 58.88100051879883,91.33799743652344 C85.4260025024414,45.46699905395508 87.89600372314453,-29.047000885009766 47.433998107910156,-68.35600280761719 C-16.731000900268555,-130.6909942626953 -86.09600067138672,-62.37300109863281 -87.41600036621094,8.991999626159668z"/></g><g opacity="1" transform="matrix(1,0,0,1,40.01100158691406,169.43800354003906)"><path fill="rgb(250,206,152)" fill-opacity="1" d=" M14.505000114440918,-4.5980000495910645 C18.825000762939453,9.029999732971191 15.833000183105469,22.136999130249023 7.822000026702881,24.676000595092773 C-0.1889999955892563,27.215999603271484 -10.1850004196167,18.22599983215332 -14.505000114440918,4.5980000495910645 C-18.825000762939453,-9.029999732971191 -15.833000183105469,-22.136999130249023 -7.822000026702881,-24.677000045776367 C0.18799999356269836,-27.215999603271484 10.1850004196167,-18.22599983215332 14.505000114440918,-4.5980000495910645z"/></g><g opacity="1" transform="matrix(1,0,0,1,208.56199645996094,169.43800354003906)"><path fill="rgb(250,206,152)" fill-opacity="1" d=" M-14.505000114440918,-4.5980000495910645 C-18.825000762939453,9.029999732971191 -15.833000183105469,22.136999130249023 -7.822000026702881,24.676000595092773 C0.1889999955892563,27.215999603271484 10.1850004196167,18.22599983215332 14.505000114440918,4.5980000495910645 C18.825000762939453,-9.029999732971191 15.833999633789062,-22.136999130249023 7.822000026702881,-24.677000045776367 C-0.1889999955892563,-27.215999603271484 -10.1850004196167,-18.22599983215332 -14.505000114440918,-4.5980000495910645z"/></g><g opacity="1" transform="matrix(1,0,0,1,114.86299896240234,85.7249984741211)"><path fill="rgb(63,50,32)" fill-opacity="1" d=" M91.78600311279297,-60.26599884033203 C87.27100372314453,-64.61199951171875 82.10199737548828,-68.24600219726562 76.4469985961914,-70.85299682617188 C60.74800109863281,-78.08799743652344 44.66999816894531,-72.8030014038086 28.163999557495117,-75.06099700927734 C11.531000137329102,-77.33699798583984 -6.0929999351501465,-85.4749984741211 -21.1299991607666,-78.00499725341797 C-30.802000045776367,-73.20099639892578 -36.590999603271484,-67.72599792480469 -48.31399917602539,-69.10700225830078 C-55.99800109863281,-70.01300048828125 -63.5880012512207,-72.42400360107422 -71.3030014038086,-71.86100006103516 C-113.74800109863281,-68.76200103759766 -114.61299896240234,1.9759999513626099 -77.1500015258789,13.227999687194824 C-64.10800170898438,17.145000457763672 -49.763999938964844,13.38599967956543 -38.02899932861328,6.474999904632568 C-34.59700012207031,4.453999996185303 -31.239999771118164,2.135999917984009 -27.3799991607666,1.156000018119812 C-20.141000747680664,-0.6819999814033508 -12.704999923706055,2.4679999351501465 -5.35099983215332,3.7639999389648438 C9.843000411987305,6.440999984741211 26.19700050354004,-0.03700000047683716 41.066001892089844,3.946000099182129 C68.16400146484375,11.20300006866455 82.05699920654297,61.542999267578125 86.98899841308594,85.4749984741211 C94.31500244140625,65.21099853515625 103.2699966430664,45.45500183105469 108.40499877929688,24.527999877929688 C113.54000091552734,3.6019999980926514 114.61299896240234,-19.097999572753906 106.31600189208984,-38.98400115966797 C103.02200317382812,-46.87900161743164 98.03099822998047,-54.25299835205078 91.78600311279297,-60.26599884033203z"/></g><g opacity="1" transform="matrix(1,0,0,1,50.505001068115234,123.2750015258789)"><path fill="rgb(63,50,32)" fill-opacity="1" d=" M-9.368000030517578,42.494998931884766 C-4.703000068664551,13.406999588012695 3.2149999141693115,-15.156999588012695 14.1899995803833,-42.494998931884766 C12.527000427246094,-38.35300064086914 -0.5270000100135803,-33.75 -3.8989999294281006,-29.150999069213867 C-7.735000133514404,-23.91900062561035 -8.70199966430664,-18.2450008392334 -10.024999618530273,-11.848999977111816 C-13.77299976348877,6.295000076293945 -14.1899995803833,24.474000930786133 -9.368000030517578,42.494998931884766z"/></g></g><g style="display: block;" transform="matrix(1,0,0,1,909.35400390625,514.4219970703125)" opacity="1"><g opacity="1" transform="matrix(1,0,0,1,178.72000122070312,127.28600311279297)"><path fill="rgb(227,223,217)" fill-opacity="1" d=" M16.132999420166016,-126.47699737548828 C45.56700134277344,-125.68099975585938 74.86299896240234,-122.58999633789062 103.3499984741211,-114.6449966430664 C132.16700744628906,-106.60600280761719 153.32000732421875,-87.14199829101562 160.9250030517578,-57.75600051879883 C178.47000122070312,10.015000343322754 144.9759979248047,81.08999633789062 69.43699645996094,81.28800201416016 C34.13600158691406,81.37999725341797 -1.274999976158142,80.65699768066406 -36.5629997253418,81.56600189208984 C-65.30899810791016,82.30599975585938 -81.8219985961914,104.4749984741211 -96.69400024414062,127.03500366210938 C-94.41000366210938,110.0719985961914 -93.36699676513672,89.78800201416016 -106.75399780273438,79.1240005493164 C-112.53199768066406,74.52200317382812 -119.97699737548828,72.73699951171875 -126.83000183105469,69.97899627685547 C-169.6929931640625,52.72100067138672 -178.47000122070312,-3.9079999923706055 -169.85699462890625,-43.97999954223633 C-156.89500427246094,-104.29900360107422 -102.44300079345703,-123.38099670410156 -45.987998962402344,-125.63600158691406 C-25.368999481201172,-126.45800018310547 -4.584000110626221,-127.03600311279297 16.132999420166016,-126.47699737548828z"/></g><g opacity="1" transform="matrix(1,0,0,1,180.57699584960938,107.06600189208984)"><path fill="rgb(170,118,49)" fill-opacity="1" d=" M-54.17499923706055,-53.61199951171875 C-50.98699951171875,-54.14400100708008 -47.70800018310547,-54.25199890136719 -44.82400131225586,-54.32600021362305 C-25.079999923706055,-54.83100128173828 -4.5229997634887695,-55.15399932861328 15.531999588012695,-54.641998291015625 C25.79199981689453,-54.37900161743164 36.04800033569336,-53.90399932861328 46.28200149536133,-53.130001068115234 C55.099998474121094,-52.46200180053711 63.97600173950195,-52.617000579833984 68.927001953125,-43.95399856567383 C71.31300354003906,-39.77899932861328 71.3949966430664,-34.72200012207031 71.41699981689453,-29.910999298095703 C71.5,-9.876999855041504 71.58499908447266,10.157999992370605 71.66999816894531,30.194000244140625 C71.68199920654297,33.209999084472656 71.68000030517578,36.30799865722656 70.59600067138672,39.12300109863281 C65.06700134277344,53.45100021362305 37.297000885009766,52.38800048828125 24.895000457763672,53.422000885009766 C4.138999938964844,55.15399932861328 -16.461000442504883,54.04999923706055 -37.15399932861328,52.36399841308594 C-43.1150016784668,51.87699890136719 -49.15800094604492,51.290000915527344 -54.73699951171875,49.13800048828125 C-60.31800079345703,46.986000061035156 -65.46600341796875,43.04800033569336 -67.77899932861328,37.534000396728516 C-71.40399932861328,28.892000198364258 -70.31300354003906,16.59600067138672 -70.61100006103516,7.4070000648498535 C-71.09200286865234,-7.519000053405762 -71.68099975585938,-22.940000534057617 -69.21700286865234,-37.724998474121094 C-68.68599700927734,-40.874000549316406 -68.11799621582031,-44.12099838256836 -66.39299774169922,-46.80699920654297 C-63.70100021362305,-50.99300003051758 -59.047000885009766,-52.79800033569336 -54.17499923706055,-53.61199951171875z"/></g><g opacity="1" transform="matrix(1,0,0,1,180.5469970703125,92.53399658203125)"><path stroke-linecap="butt" stroke-linejoin="miter" fill-opacity="0" stroke-miterlimit="10" stroke="rgb(155,165,177)" stroke-opacity="1" stroke-width="1" d=" M-77.06600189208984,-31.577999114990234 C-62.435001373291016,-21.576000213623047 -49.57699966430664,-9.310999870300293 -36.4739990234375,2.549999952316284 C-27.632999420166016,10.553000450134277 -18.642000198364258,18.437000274658203 -8.897000312805176,25.333999633789062 C-3.5490000247955322,29.118000030517578 -1.0290000438690186,31.577999114990234 4.9670000076293945,27.996000289916992 C10.303999900817871,24.80900001525879 15.465999603271484,21.301000595092773 20.51300048828125,17.677000045776367 C40.79899978637695,3.109999895095825 58.97600173950195,-14.111000061035156 77.06600189208984,-31.256999969482422"/></g></g></g></svg>